<?xml version="1.0" encoding="utf-8"?>
<!-- Generated by Mocodo 4.3.2 -->
<svg width="355" height="229" viewBox="0 0 355 229" xmlns="http://www.w3.org/2000/svg">
<rect x="0" y="0" width="355" height="229" fill="#f7f7f7" stroke="none" stroke-width="0"/>

<!-- Association APPARTENIR -->
<g>
	<line x1="309" y1="68" x2="194" y2="68" stroke="#e08214" stroke-width="2"/>
	<line x1="52" y1="68" x2="194" y2="68" stroke="#e08214" stroke-width="2"/>
	<g>
		<path d="M226 43 a14 14 90 0 1 14 14 V68 h-92 V57 a14 14 90 0 1 14 -14" fill="#fdb863" stroke="#fdb863" stroke-width="0"/>
		<path d="M240 68 v11 a14 14 90 0 1 -14 14 H162 a14 14 90 0 1 -14 -14 V68 H92" fill="#fee0b6" stroke="#fee0b6" stroke-width="0"/>
		<rect x="148" y="43" width="92" height="50" fill="none" rx="14" stroke="#e08214" stroke-width="2"/>
		<line x1="148" y1="68" x2="240" y2="68" stroke="#e08214" stroke-width="1"/>
		<text x="155" y="60.75" fill="#000000" font-family="Verdana" font-size="12">APPARTENIR</text>
	</g>
	<text x="245" y="85" fill="#542788" font-family="Verdana" font-size="12">0,N</text>
	<text x="100" y="85" fill="#542788" font-family="Verdana" font-size="12">1,1</text>
</g>

<!-- Association POSSEDER -->
<g>
	<line x1="194" y1="186" x2="52" y2="186" stroke="#e08214" stroke-width="2"/>
	<line x1="52" y1="68" x2="52" y2="186" stroke="#e08214" stroke-width="2"/>
	<g>
		<path d="M79 161 a14 14 90 0 1 14 14 V186 h-82 V175 a14 14 90 0 1 14 -14" fill="#fdb863" stroke="#fdb863" stroke-width="0"/>
		<path d="M93 186 v11 a14 14 90 0 1 -14 14 H25 a14 14 90 0 1 -14 -14 V186 H82" fill="#fee0b6" stroke="#fee0b6" stroke-width="0"/>
		<rect x="11" y="161" width="82" height="50" fill="none" rx="14" stroke="#e08214" stroke-width="2"/>
		<line x1="11" y1="186" x2="93" y2="186" stroke="#e08214" stroke-width="1"/>
		<text x="19" y="178.75" fill="#000000" font-family="Verdana" font-size="12">POSSÉDER</text>
	</g>
	<text x="98" y="203" fill="#542788" font-family="Verdana" font-size="12">0,N</text>
	<text x="57" y="144" fill="#542788" font-family="Verdana" font-size="12">1,N</text>
</g>

<!-- Entity CAFE -->
<g>
	<g>
		<rect x="9" y="9" width="86" height="25" fill="#b2abd2" stroke="none" stroke-width="0" opacity="1"/>
		<rect x="9" y="34" width="86" height="93" fill="#d8daeb" stroke="none" stroke-width="0" opacity="1"/>
		<rect x="9" y="9" width="86" height="118" fill="none" stroke="#8073ac" stroke-width="2" opacity="1"/>
		<line x1="9" y1="34" x2="95" y2="34" stroke="#8073ac" stroke-width="1"/>
	</g>
	<text x="38" y="26.75" fill="#000000" font-family="Verdana" font-size="12">Café</text>
	<text x="14" y="51.8" fill="#000000" font-family="Verdana" font-size="12">Référence</text>
	<line x1="14" y1="54" x2="75" y2="54" stroke="#000000" stroke-width="1"/>
	<text x="14" y="68.8" fill="#000000" font-family="Verdana" font-size="12">Nom</text>
	<text x="14" y="85.8" fill="#000000" font-family="Verdana" font-size="12">Description</text>
	<text x="14" y="102.8" fill="#000000" font-family="Verdana" font-size="12">Prix au kilo</text>
	<text x="14" y="119.8" fill="#000000" font-family="Verdana" font-size="12">Disponibilité</text>
</g>

<!-- Entity PAYS -->
<g>
	<g>
		<rect x="272" y="34" width="74" height="25" fill="#b2abd2" stroke="none" stroke-width="0" opacity="1"/>
		<rect x="272" y="59" width="74" height="43" fill="#d8daeb" stroke="none" stroke-width="0" opacity="1"/>
		<rect x="272" y="34" width="74" height="68" fill="none" stroke="#8073ac" stroke-width="2" opacity="1"/>
		<line x1="272" y1="59" x2="346" y2="59" stroke="#8073ac" stroke-width="1"/>
	</g>
	<text x="295" y="51.75" fill="#000000" font-family="Verdana" font-size="12">Pays</text>
	<text x="277" y="76.8" fill="#000000" font-family="Verdana" font-size="12">Code Pays</text>
	<line x1="277" y1="79" x2="340" y2="79" stroke="#000000" stroke-width="1"/>
	<text x="277" y="93.8" fill="#000000" font-family="Verdana" font-size="12">Nom</text>
</g>

<!-- Entity CARACTERISTIQUE -->
<g>
	<g>
		<rect x="125" y="152" width="138" height="25" fill="#b2abd2" stroke="none" stroke-width="0" opacity="1"/>
		<rect x="125" y="177" width="138" height="43" fill="#d8daeb" stroke="none" stroke-width="0" opacity="1"/>
		<rect x="125" y="152" width="138" height="68" fill="none" stroke="#8073ac" stroke-width="2" opacity="1"/>
		<line x1="125" y1="177" x2="263" y2="177" stroke="#8073ac" stroke-width="1"/>
	</g>
	<text x="148" y="169.75" fill="#000000" font-family="Verdana" font-size="12">Caractéristique</text>
	<text x="130" y="194.8" fill="#000000" font-family="Verdana" font-size="12">Code Caractéristique</text>
	<line x1="130" y1="197" x2="257" y2="197" stroke="#000000" stroke-width="1"/>
	<text x="130" y="211.8" fill="#000000" font-family="Verdana" font-size="12">Nom</text>
</g>
</svg>